# xmcd CD database file
#
# Track frame offsets:
#	150
#	21305
#	38891
#	57994
#	82334
#	101918
#	118175
#	163242
#	184214
#	205598
#
# Disc length: 2997 seconds
#
# Revision: 0
# Processed by: cddbd v1.5.2PL0 Copyright (c) Steve Scherf et al.
# Submitted via: CDex 1.51
#
DISCID=920bb30a
DTITLE=Black Jake and the Carnies - Where the Heather Don't Grow
DYEAR=2008
DGENRE=Country
TTITLE0=Paper Outlaw
TTITLE1=No Diamond Ring
TTITLE2=Crazy MacCready's
TTITLE3=Hunters' Moon
TTITLE4=Jasper Watkins
TTITLE5=Styxferry County
TTITLE6=Where the Heather Don't Grow
TTITLE7=Bone Man
TTITLE8=Happy Easter To Ya
TTITLE9=Swing Low 
EXTD=YEAR: 2008
EXTT0=
EXTT1=
EXTT2=
EXTT3=
EXTT4=
EXTT5=
EXTT6=
EXTT7=
EXTT8=
EXTT9=
PLAYORDER=
